<mxfile host="app.diagrams.net" modified="2024-05-30T04:01:59.899Z" agent="Mozilla/5.0 (Windows NT 10.0; Win64; x64) AppleWebKit/537.36 (KHTML, like Gecko) Chrome/125.0.0.0 Safari/537.36" version="24.4.9" etag="ycIBHjwbEddcg49z5z8r" type="github">
  <diagram name="Page-1" id="7iRNYdD5l5ORRTIbMmCj">
    <mxGraphModel>
      <root>
        <mxCell id="0" />
        <mxCell id="1" parent="0" />
      </root>
    </mxGraphModel>
  </diagram>
</mxfile>
